# xmcd
#
# Track frame offsets:
#	150
#	11776
#	24135
#	38390
#	49155
#	60790
#	72912
#	85388
#	97027
#	108198
#
# Disc length: 1575 seconds
#
# Revision: 1
# Processed by: cddbd v1.5.1PL0 Copyright (c) Steve Scherf et al.
# Submitted via: dBpowerAMP V4.0
#
DISCID=6e06250a
DTITLE=George Jones - She Thinks I Still Care
DYEAR=2003
DGENRE=Country
TTITLE0=She Thinks I Still Care
TTITLE1=Least Of All
TTITLE2=Sometimes You Just Can't Win
TTITLE3=Big Fool Of The Year
TTITLE4=You Comb Her Hair
TTITLE5=Open Pit Mine
TTITLE6=Let's Invite Them Over (with Melba Montgomery)
TTITLE7=I Saw Me
TTITLE8=Wrong Number
TTITLE9=Multiply The Heartaches (with Melba Montgomery)
EXTD=
EXTT0=
EXTT1=
EXTT2=
EXTT3=
EXTT4=
EXTT5=
EXTT6=
EXTT7=
EXTT8=
EXTT9=
PLAYORDER=
